<svg xmlns="http://www.w3.org/2000/svg" width="25" height="26" viewBox="0 0 25 26" fill="none">
  <path d="M12.4998 10.7272V15.5682H19.2271C18.9317 17.125 18.0452 18.4432 16.7157 19.3295L20.7725 22.4773C23.1361 20.2956 24.4997 17.091 24.4997 13.2842C24.4997 12.3978 24.4202 11.5455 24.2725 10.7274L12.4998 10.7272Z" fill="#4285F4"/>
  <path d="M5.49444 15.3792L4.57948 16.0796L1.34079 18.6023C3.3976 22.6818 7.6132 25.5 12.4995 25.5C15.8744 25.5 18.7039 24.3864 20.7722 22.4773L16.7154 19.3296C15.6017 20.0796 14.1813 20.5341 12.4995 20.5341C9.24954 20.5341 6.48826 18.341 5.49955 15.3864L5.49444 15.3792Z" fill="#34A853"/>
  <path d="M1.34081 7.39773C0.488585 9.07948 0 10.9772 0 12.9999C0 15.0226 0.488585 16.9204 1.34081 18.6021C1.34081 18.6134 5.49997 15.3748 5.49997 15.3748C5.24997 14.6249 5.10221 13.8294 5.10221 12.9998C5.10221 12.1701 5.24997 11.3747 5.49997 10.6247L1.34081 7.39773Z" fill="#FBBC05"/>
  <path d="M12.4998 5.47727C14.3407 5.47727 15.9771 6.11362 17.2839 7.34091L20.8634 3.76141C18.6929 1.73871 15.8748 0.5 12.4998 0.5C7.61346 0.5 3.3976 3.30681 1.34079 7.39774L5.49982 10.625C6.4884 7.67043 9.2498 5.47727 12.4998 5.47727Z" fill="#EA4335"/>
</svg>