<svg xmlns="http://www.w3.org/2000/svg" width="25" height="26" viewBox="0 0 25 26" fill="none">
  <g clip-path="url(#clip0_2_201)">
    <path d="M12.5 25.5C19.4036 25.5 25 19.9036 25 13C25 6.09644 19.4036 0.5 12.5 0.5C5.59644 0.5 0 6.09644 0 13C0 19.9036 5.59644 25.5 12.5 25.5Z" fill="white"/>
    <path d="M12.5 0.5C5.59671 0.5 0 6.09671 0 13C0 18.2984 3.29218 22.8251 7.94239 24.6461C7.82922 23.6584 7.73663 22.1358 7.98354 21.0556C8.20988 20.0782 9.44444 14.8416 9.44444 14.8416C9.44444 14.8416 9.07407 14.0905 9.07407 12.9897C9.07407 11.251 10.0823 9.95473 11.3374 9.95473C12.4074 9.95473 12.9218 10.7572 12.9218 11.714C12.9218 12.784 12.2428 14.3889 11.8827 15.8807C11.5844 17.1255 12.5103 18.144 13.7346 18.144C15.9568 18.144 17.6646 15.7984 17.6646 12.4239C17.6646 9.43004 15.5144 7.34156 12.4383 7.34156C8.8786 7.34156 6.79012 10.0062 6.79012 12.7634C6.79012 13.8333 7.20165 14.9856 7.71605 15.6132C7.81893 15.7366 7.82922 15.8498 7.79836 15.9733C7.70576 16.3642 7.48971 17.2181 7.44856 17.393C7.39712 17.6193 7.26338 17.6708 7.02675 17.5576C5.46296 16.8272 4.4856 14.5535 4.4856 12.7119C4.4856 8.77161 7.34568 5.15021 12.7469 5.15021C17.0782 5.15021 20.4527 8.23663 20.4527 12.3724C20.4527 16.6831 17.7366 20.1502 13.9712 20.1502C12.7058 20.1502 11.5123 19.4918 11.1111 18.7099C11.1111 18.7099 10.4835 21.0967 10.3292 21.6831C10.0514 22.7737 9.29012 24.1317 8.77572 24.965C9.94856 25.3251 11.1831 25.5206 12.4794 25.5206C19.3827 25.5206 24.9794 19.9239 24.9794 13.0206C25 6.09671 19.4033 0.5 12.5 0.5Z" fill="#E60019"/>
  </g>
  <defs>
    <clipPath id="clip0_2_201">
      <rect width="25" height="25" fill="white" transform="translate(0 0.5)"/>
    </clipPath>
  </defs>
</svg>